<?xml version="1.0" standalone="no"?>
<!DOCTYPE svg PUBLIC "-//W3C//DTD SVG 1.1//EN" "http://www.w3.org/Graphics/SVG/1.1/DTD/svg11.dtd" >
<!--
2013-9-30: Created.
-->
<svg>
<metadata>
Created by iconfont
</metadata>
<defs>

<font id="iconfont" horiz-adv-x="1024" >
  <font-face
    font-family="iconfont"
    font-weight="500"
    font-stretch="normal"
    units-per-em="1024"
    ascent="896"
    descent="-128"
  />
    <missing-glyph />
    
    <glyph glyph-name="weixin" unicode="&#58991;" d="M745.604154 298.495007c-23.479784 0-42.571627 19.132775-42.571627 42.903179 0 23.603604 19.09082 42.736379 42.571627 42.736379s42.571627-19.132775 42.571627-42.736379C788.174758 317.627782 769.083938 298.495007 745.604154 298.495007M575.526401 298.495007c-23.066368 0-41.826659 19.132775-41.826659 42.903179 0 23.603604 18.760291 42.736379 41.826659 42.736379 23.1073 0 41.866568-19.132775 41.866568-42.736379C617.392969 317.627782 598.633701 298.495007 575.526401 298.495007M957.259903 264.909041c0 127.714881-112.432811 232.279483-254.931411 241.307099-6.666847 0.372484-13.333693 0.621147-20.001563 0.621147-151.897677 0-274.973907-108.333442-274.973907-241.928247 0-20.126406 2.857074-39.631665 8.157805-58.286556 29.568462-105.454879 137.777061-183.640667 266.816101-183.640667 43.895787 0 85.308006 9.027616 122.040642 25.136519l61.745334-42.633025c0 0 16.439431-11.63705 14.824652 10.745749l-17.434085 66.796379C921.023571 127.318222 957.259903 192.356559 957.259903 264.909041M278.519666 552.846203c-23.52174 0-42.612559 19.111286-42.612559 42.737403 0 23.728448 19.089796 42.861223 42.612559 42.861223 23.604628 0 42.571627-19.131752 42.571627-42.861223C321.091293 571.957489 302.125317 552.846203 278.519666 552.846203M491.087182 638.443806c23.479784 0 42.612559-19.131752 42.612559-42.861223 0-23.625094-19.131752-42.737403-42.612559-42.737403-23.562672 0-42.571627 19.111286-42.571627 42.737403C448.515555 619.312054 467.52451 638.443806 491.087182 638.443806M682.326929 527.004626c5.921879 0 11.718914-0.26913 17.557905-0.53826-22.651929 135.250515-155.004438 239.07015-314.895168 239.07015-175.751992 0-318.249569-125.477931-318.249569-280.088396 0-86.198284 44.269294-163.245131 113.799949-214.658132l-23.52174-89.697994c0 0-8.033985-29.753681 22.404288-16.398498l87.668776 60.584904c36.482949-12.898788 76.197502-20.042495 117.899318-20.042495 3.561109 0 7.040354 0.24764 10.476619 0.24764-5.052068 19.153241-7.784298 39.05145-7.784298 59.425497C387.681987 409.395927 519.909653 527.004626 682.326929 527.004626"  horiz-adv-x="1024" />

    
    <glyph glyph-name="kefu" unicode="&#58923;" d="M894.719 540.801C879.996 739.521 714.234 896 512 896 309.76 896 143.996 739.521 128.959 540.801 55.678 526.4 0 461.764 0 383.998L0 320c0-88.324 71.68-160.004 160-160.004l96 0L256 320l0 63.998 0 160-62.402 0C209.6 705.6 345.916 832.004 512 832.004c166.047 0 302.402-126.404 318.402-288.006l-62.41 0 0-160L767.992 320l0-160.004 62.41 0c-29.121-131.199-146.238-229.439-286.404-229.439-22.08 0-43.521 2.564-64 7.045l0-59.84c20.803-3.811 42.246-5.76 64-5.76 173.439 0 317.443 125.439 346.564 290.244 3.48 20.154 5.434 40.641 5.434 61.75l-16 0-42.559 0-5.434 0L832.003 330.561l0 42.881L832.003 480l47.992 0c44.16 0 80-47.682 80-106.559l0-42.881c0-58.879-35.84-106.564-80-106.564l16 0c0-21.109-1.953-41.596-5.434-61.75 75.836 12.824 133.434 78.395 133.434 157.754l0 63.998C1023.996 461.764 968.316 526.4 894.719 540.801L894.719 540.801zM143.996 480 192 480l0-106.559 0-42.881 0-106.564-48.004 0c-44.162 0-80.002 47.686-80.002 106.564l0 42.881C63.994 432.318 99.84 480 143.996 480L143.996 480z"  horiz-adv-x="1024" />

    
    <glyph glyph-name="yi" unicode="&#58969;" d="M922.515654 87.769228c0-42.131563-16.389272-73.229838-49.166793-93.313246-26.094308-15.381315-58.856479-23.072485-98.317213-23.072485-14.054087 0-42.819225 9.705036-86.293365 29.100782-48.158836 21.409612-72.239278 39.797401-72.239278 55.178717 3.342118 8.698103 6.683213 15.397688 10.04068 20.066011 9.354042 12.71151 21.393239 19.059078 36.119639 19.059078 7.355525 0 26.41358-8.026814 57.177234-24.079418s52.844555-24.079418 66.227354-24.079418c17.379832 0 30.250978 2.51017 38.613436 7.515161 8.362458 5.036713 12.551874 14.901385 12.551874 29.612435 0 10.712993-0.847298 25.742291-2.51017 45.137013-1.679245 19.394722-5.516644 52.507888-11.528568 99.340519-2.01489 18.723434-12.887518 32.426527-32.617885 41.12463s-48.670489 13.047154-86.788645 13.047154c-36.790928 0-66.227354-15.045671-88.291882-45.137013-5.355985-7.370875-27.085892-42.48358-65.204048-105.352443-11.384281-18.738783-22.912849-37.622876-34.616402-56.697303-11.704576-19.042705-24.926716-42.291199-39.636742-69.729108-6.683213-12.023848-13.382798-24.735357-20.066011-38.118156-9.369392-14.710027-20.066011-22.080901-32.106232-22.080901-10.712993 0-20.402679 3.853771-29.100782 11.543917-8.698103 7.706519-13.030781 15.557324-13.030781 23.584138 0 5.355985 5.676279 17.396205 17.044188 36.119639 22.064528 37.462217 42.802852 74.589812 62.213947 111.364367 19.394722 36.775578 36.790928 66.546625 52.172243 89.299839 22.064528 32.762171 34.440393 52.492538 37.126572 59.192124l-80.266092 0L322.522578 87.769228c-59.527768-83.607186-92.640933-129.767506-99.324146-138.465608-2.686179-3.325745-16.724917-11.016915-42.131563-23.072485-0.671289 2.01489-5.531993 8.026814-14.550391 18.052145-9.033747 10.057053-13.542434 18.083867-13.542434 24.095791 0 8.026814 33.097816 57.529251 99.324146 148.490939 18.723434 26.750247 37.446867 51.836599 56.18565 75.244728 36.775578 48.158836 56.170301 73.229838 58.184167 75.244728-10.712993 4.668323-21.409612 7.018857-32.106232 7.018857-46.14497 0-76.923974-4.349051-92.305289-13.030781-4.013407-2.01489-13.382798-11.719926-28.092825-29.100782-22.73684-29.436426-37.782511-49.502437-45.137013-60.199057-20.082384-26.094308-38.805818-39.125089-56.18565-39.125089-8.698103 0-15.22168 4.013407-19.570731 12.040221s-6.523577 17.044188-6.523577 27.085892c0 14.038738 22.73684 52.172243 68.225871 114.370841 37.446867 49.502437 78.586846 101.003392 123.404588 154.518213l0 6.011924c-43.474141 10.04068-72.398914 23.584138-86.788645 40.644699-14.389732 17.044188-21.569248 42.626843-21.569248 76.747965 0 28.748764-1.006933 66.210981-3.006474 112.3713-2.01489 46.14497-3.006474 83.942831-3.006474 113.379257 4.668323 26.077935 35.111682 44.465724 91.298356 55.178717 38.118156 7.354502 86.276992 11.032264 144.478556 11.032264 6.683213-4.013407 12.71151-6.011924 18.067494-6.011924 9.354042 1.998517 19.715017 3.997034 31.099299 6.011924 11.367909 2.01489 20.402679 3.021823 27.085892 3.021823l106.3604 0c29.420053 0 67.218938-1.854231 113.362884-5.531993s71.231321-6.859221 75.261101-9.529027c18.723434-8.026814 35.44835-27.757181 50.158377-59.192124 12.695137-27.436886 18.052145-47.50392 16.053628-60.199057l0-13.047154c0-11.367909-0.176009-23.072485-0.511653-35.111682s-0.49528-23.743774-0.49528-35.111682l0-12.040221 0-33.113165c0-42.819225-3.006474-73.581856-9.017374-92.305289-10.04068-29.436426-28.780487-47.823192-56.18565-55.178717-22.080901-4.02978-49.838082-7.370875-83.287915-10.04068-33.449833-2.686179-72.239278-4.013407-116.384707-4.013407l-171.563424 13.047154c-2.686179-2.686179-12.71151-4.013407-30.091342-4.013407l0-12.040221c-8.026814-13.382798-18.403139-26.765597-31.114648-40.133046-12.71151-13.382798-21.745257-24.415063-27.085892-33.113165l345.141738 10.04068c56.856939-0.671289 105.672738-4.524037 146.477073-11.543917 40.804335-7.03523 69.232804-21.249977 85.286432-42.643216 10.04068-12.040221 18.22713-42.467207 24.591071-91.298356C919.333172 174.381865 922.515654 129.228479 922.515654 87.769228zM748.93734 718.860581c0 20.050662-5.691629 33.257451-17.060561 39.621393-11.367909 6.347568-29.420053 9.529027-54.171784 9.529027-10.712993 0-24.591071-0.335644-41.636283-1.006933-17.060561-0.671289-36.966936-1.327228-59.703777-1.998517-6.028297 0-16.068977 1.662873-30.107715 5.02034-14.038738 3.342118-23.743774 5.02034-29.084409 5.02034-44.817742-0.671289-92.481298-2.01489-142.975319-4.02978-50.509371-2.01489-92.145653-5.691629-124.906801-11.032264l3.006474-71.231321c3.342118-0.671289 9.033747-1.006933 17.060561-1.006933 5.340635 0 19.730367 1.327228 43.138496 4.013407 23.408129 2.669806 41.460274 4.013407 54.171784 4.013407 9.369392 0 16.389272-0.335644 21.073968-0.991584l112.3713-12.040221c44.146453 0 75.91704 0.319272 95.311763 0.991584 96.318696 3.342118 147.148361 5.02034 152.504346 5.02034L748.93734 718.860581zM743.917 532.235113c0 6.011924 0.830925 13.703093 2.51017 23.072485 1.662873 9.369392 2.51017 16.053628 2.51017 20.066011 0 8.026814-1.679245 16.389272-5.02034 25.087375-32.106232 0-73.581856-1.006933-124.411521-3.006474-50.846038-2.01489-92.640933-3.006474-125.403105-3.006474-19.411095 0-41.475624 1.327228-66.227354 4.013407-24.75173 2.669806-52.172243 6.347568-82.264609 11.032264-6.028297-2.01489-13.558807-3.518127-22.576181-4.52506-9.033747-1.006933-16.900925-1.503237-23.584138-1.503237-8.698103 0-17.060561 0-25.087375 0-13.382798-2.01489-20.066011-11.704576-20.066011-29.084409 0-18.738783 5.004991-30.93864 15.045671-36.631292s26.765597-8.522094 50.173726-8.522094l47.151903 0c48.831148 0 105.848747-1.006933 171.068144-3.021823 65.204048-2.01489 106.520035-3.006474 123.916241-3.006474 17.379832 0 31.082926 0.49528 41.12463 1.503237S726.520795 528.221706 743.917 532.235113z"  horiz-adv-x="1024" />

    
    <glyph glyph-name="sousuo" unicode="&#59204;" d="M811.7248 120.5248L695.296 236.9536c45.2608 53.5552 72.704 122.6752 72.704 198.2464 0 169.5744-137.6256 307.2-307.2 307.2S153.6 604.7744 153.6 435.2s137.6256-307.2 307.2-307.2c75.5712 0 144.6912 27.4432 198.2464 72.704l116.5312-116.4288c9.9328-10.0352 26.3168-10.0352 36.2496 0 9.8304 9.9328 9.8304 26.2144-0.1024 36.2496zM460.8 179.2c-141.1072 0-256 114.8928-256 256 0 141.2096 114.8928 256 256 256s256-114.7904 256-256c0-141.1072-114.8928-256-256-256z"  horiz-adv-x="1024" />

    
    <glyph glyph-name="xinlang" unicode="&#58907;" d="M869.049 264.349c0-24.787-6.609-50.205-19.815-76.263-13.216-26.055-32.669-51.020-58.376-74.882-25.701-23.88-55.788-45.293-90.236-64.238-34.46-18.947-74.798-34.073-121.034-45.371-46.24-11.292-94.522-16.95-144.863-16.95-50.344 0-99.435 6.111-147.272 18.319-47.848 12.207-90.774 29.147-128.798 50.831-38.022 21.683-68.642 49.202-91.844 82.552-23.212 33.34-34.81 69.695-34.81 109.056 0 41.904 12.4 86.552 37.219 133.928 24.815 47.371 60.066 94.384 105.772 141.041 60.33 61.584 121.299 104.592 182.888 129.008 61.583 24.411 105.579 23.142 132.009-3.828 23.203-23.32 26.779-61.415 10.711-114.25-1.432-5.109-1.606-8.748-0.535-10.931 1.071-2.187 2.852-3.469 5.357-3.826 2.49-0.366 5.085-0.279 7.762 0.276 2.678 0.54 5.091 1.177 7.232 1.909l3.214 1.093c49.618 21.504 93.534 32.253 131.739 32.253 38.198 0 65.512-11.12 81.94-33.346 16.065-22.957 16.065-55.401 0-97.301-0.723-4.738-1.524-8.391-2.408-10.936-0.898-2.548-0.097-4.833 2.408-6.838 2.49-2.001 4.637-3.365 6.426-4.097 1.78-0.732 4.821-1.826 9.104-3.278 20.351-6.559 38.734-15.124 55.162-25.691 16.416-10.575 30.7-25.42 42.84-44.557 12.134-19.129 18.208-40.367 18.208-63.684zM704.104 266.536c-3.214 34.985-19.105 65.955-47.663 92.93-28.567 26.97-65.79 46.826-111.66 59.588-45.884 12.758-94.884 16.58-147.007 11.48-79.622-8.391-145.585-34.164-197.883-77.358-52.308-43.177-75.965-91.378-70.958-144.582 3.214-34.99 19.093-65.964 47.663-92.936 28.56-26.974 65.778-46.83 111.661-59.582 45.869-12.767 94.868-16.593 147.007-11.481 79.609 8.381 145.573 34.161 197.883 77.353 52.297 43.183 75.953 91.373 70.958 144.589zM537.012 179.072c-16.066-37.174-44.272-64.508-84.612-81.997-40.355-17.497-80.332-19.682-119.962-6.561-38.207 12.382-64.532 35.438-78.993 69.147-14.458 33.71-13.305 67.876 3.48 102.502 16.781 33.891 43.824 59.218 81.138 75.984 37.3 16.757 74.881 20.226 112.732 10.385 39.63-10.573 67.918-32.348 84.881-65.328 16.95-32.982 17.403-67.697 1.337-104.133zM393.491 171.419c7.498 12.382 9.453 24.956 5.891 37.717-3.576 12.757-11.61 21.867-24.1 27.338-12.143 5.1-25.17 5.274-39.095 0.544-13.924-4.738-24.638-13.119-32.134-25.144-7.859-12.39-10.176-24.877-6.961-37.442 3.214-12.583 10.884-21.788 23.029-27.609 12.129-5.832 25.436-6.287 39.895-1.369 14.46 4.919 25.614 13.575 33.473 25.966zM443.832 237.562c2.852 4.732 3.478 9.563 1.872 14.492-1.607 4.913-4.738 8.28-9.37 10.106-5.008 1.826-10.094 1.731-15.265-0.27-5.178-2.009-9.018-5.382-11.513-10.116-6.078-11.297-3.748-19.495 6.964-24.599 4.993-1.83 10.175-1.734 15.53 0.27 5.355 2.006 9.278 5.378 11.782 10.117zM926.352 694.567c31.061-34.989 51.146-75.535 60.248-121.634 9.103-46.102 6.697-90.108-7.228-132.015-3.213-9.84-9.287-17.133-18.208-21.866-8.931-4.737-18.209-5.466-27.849-2.187-9.639 3.281-16.785 9.474-21.422 18.588-4.645 9.105-5.539 18.589-2.677 28.426 9.992 29.876 11.782 61.227 5.356 94.022-6.426 32.802-20.713 61.584-42.844 86.375-22.141 25.144-48.557 42.542-79.261 52.2-30.71 9.658-61.583 11.21-92.646 4.651-10.002-2.187-19.28-0.459-27.849 5.187-8.569 5.653-13.924 13.58-16.065 23.782-2.142 10.2-0.455 19.587 5.090 28.156 5.529 8.559 13.294 13.938 23.294 16.125 43.915 9.475 87.469 7.374 130.673-6.284 43.191-13.671 80.328-38.183 111.389-73.524zM775.327 641.27c21.065-6.747 39.096-18.681 54.090-35.809 14.995-17.134 24.718-36.902 29.19-59.308 4.46-22.421 3.296-43.828-3.483-64.235-2.86-8.391-8.125-14.578-15.797-18.589-7.686-4.014-15.622-4.737-23.834-2.182-8.216 2.916-14.281 8.284-18.209 16.125-3.932 7.832-4.641 15.934-2.137 24.324 7.136 22.959 2.852 43.188-12.853 60.678-15.719 17.494-34.811 23.866-57.304 19.134-8.569-1.828-16.603-0.363-24.1 4.375-7.498 4.728-11.965 11.48-13.388 20.227-1.791 8.743-0.361 16.85 4.284 24.328 4.637 7.466 11.247 12.108 19.816 13.934 21.422 4.732 42.656 3.734 63.726-3.004zM775.327 641.27z"  horiz-adv-x="1025" />

    
    <glyph glyph-name="erji" unicode="&#58956;" d="M1161.116469 345.205563C1153.951663 650.590478 904.168625 896 597.067141 896c-303.981808 0-551.809452-240.319524-563.765721-541.43541A118.980555 118.980555 0 0 1 0 272.034984v-280.621556a119.786595 119.786595 0 0 1 119.413428-119.413428h83.5894a118.338707 118.338707 0 0 1 38.630244 6.493105 118.935774 118.935774 0 0 1 19.404682-1.597154h83.5894a119.786595 119.786595 0 0 1 119.413428 119.413428v280.621556a119.786595 119.786595 0 0 1-119.413428 119.413428H260.918341a118.338707 118.338707 0 0 1-38.630244-6.493105 118.920848 118.920848 0 0 1-19.404683 1.597155h-83.589399c-2.806216 0-5.582578-0.13434-8.344014-0.328387C140.415265 633.514358 346.791522 821.321827 597.067141 821.321827c250.559226 0 457.099676-188.225416 486.072359-430.977989a119.040261 119.040261 0 0 1-16.210373 1.134428H983.369581a118.920848 118.920848 0 0 1-19.404682-1.597155 118.338707 118.338707 0 0 1-38.630244 6.493105h-83.5894a119.786595 119.786595 0 0 1-119.413428-119.413428v-280.621556a119.786595 119.786595 0 0 1 119.413428-119.413428h83.5894a118.935774 118.935774 0 0 1 19.404682 1.597155 118.338707 118.338707 0 0 1 38.630244-6.508032h83.5894a119.786595 119.786595 0 0 1 119.413428 119.413428v280.621556a118.682021 118.682021 0 0 1-25.25594 73.155652zM175.015306-86.354567l-0.403021 0.417947z m-11.59803 14.016151l-0.119413 0.164194z m-5.881111 9.179908l-0.119413 0.208973z m-5.731844 388.332468l0.776187 1.701641z m2.642022 5.537798c0.298534 0.58214 0.58214 1.149354 0.880674 1.731494-0.283607-0.522434-0.58214-1.104574-0.865748-1.671788z m2.253928 4.22425l0.880674 1.492668z m3.209236 5.388531l0.880674 1.373254z m3.522696 5.269117l0.865747 1.223988z m6.597592 8.49328l0.776187 0.895601z m4.26903 4.746684l0.761261 0.806041z m8.13504-452.278359l0.611994-0.522434z m5.687064-4.686977l0.194047-0.164194z m2.985336-2.194222l0.626921-0.4478z m5.567651-3.806303l0.895601-0.567214z m36.809189-15.717793l1.492668-0.35824z m-27.315821 10.194922l1.149354-0.582141z m6.731932-3.254016l0.462727-0.208974z m3.403282-1.492668l1.238915-0.49258z m6.358766-2.373342l1.283694-0.432873z m4.298883-1.388181l1.089647-0.31346z m62.318883 439.889216h26.868021a73.304918 73.304918 0 0 0 73.140725-73.140725v-223.959884a73.304918 73.304918 0 0 0-73.140725-73.140725h-26.868021a73.304918 73.304918 0 0 0-73.140725 73.140725V248.629952a73.304918 73.304918 0 0 0 73.140725 73.095945z m-82.499752 61.497916h0.104486z m-27.420309-19.404682l0.2239 0.2239z m7.597679 6.567738l0.462728 0.35824z m5.298971 4.04513l0.223901 0.149267z m-44.556135-57.616979h0.716481a118.353634 118.353634 0 0 1-6.911053-39.899012v-280.621556a118.293927 118.293927 0 0 1 10.926329-49.690913h-4.71683a73.304918 73.304918 0 0 0-73.140725 73.140725V243.748929a73.304918 73.304918 0 0 0 73.140725 73.081018z m2.403195 4.478004c-0.238827-0.597067-0.477654-1.209061-0.71648-1.806129 0.253754 0.552287 0.49258 1.209061 0.731407 1.761348z m861.179791 38.436197l0.761261-0.806041z m4.254103-4.657124l0.776188-0.895601z m6.508032-8.17982l0.865747-1.223987z m3.50777-5.104924l0.880674-1.373254z m3.224162-5.239264l0.880674-1.492668z m2.239002-4.015277c0.298534-0.567214 0.597067-1.149354 0.880674-1.731494-0.26868 0.53736-0.567214 1.119501-0.865747 1.686714z m2.761435-5.582577l0.761261-1.686715z m-4.80639-389.869917l-0.119413-0.208973z m-5.896038-9.224687l-0.119413-0.164193z m-11.344276-13.792251l-0.40302-0.417947z m-4.686977 449.785604l-0.2239 0.2239z m-7.597679 6.567739l-0.462727 0.373167z m-5.343751 4.015276l-0.2239 0.164194z m-14.434098 8.76196h-0.104487zM897.153086-48.45573h-26.987435a73.304918 73.304918 0 0 0-73.140725 73.140725V248.629952a73.304918 73.304918 0 0 0 73.140725 73.140725h26.987435a73.304918 73.304918 0 0 0 73.140725-73.140725v-224.004664a73.304918 73.304918 0 0 0-73.140725-73.081018z m106.785458-44.989009l-0.611994-0.522434z m-5.642284-4.686977l-0.194047-0.164194z m-2.985336-2.194222l-0.626921-0.4478z m-5.567651-3.806303l-0.895601-0.567214z m-9.493368-5.522871l-1.149354-0.597067z m-6.731932-3.254016l-0.462727-0.208974z m-20.568963-6.955832l-1.492668-0.35824z m17.165681 5.493017l-1.238915-0.49258z m-6.358766-2.283781l-1.283694-0.432874z m-4.26903-1.492668l-1.089647-0.31346z m79.111397 64.796711h-4.716831a118.293927 118.293927 0 0 1 10.926329 49.690913v280.621556a118.353634 118.353634 0 0 1-6.925979 39.913939h0.716481a73.304918 73.304918 0 0 0 73.140724-73.140725v-223.989738a73.304918 73.304918 0 0 0-73.140724-73.095945z m-2.403196 374.659631c0.238827-0.597067 0.477654-1.209061 0.716481-1.806128-0.17912 0.53736-0.417947 1.194134-0.656774 1.746421z"  horiz-adv-x="1186" />

    
    <glyph glyph-name="hot" unicode="&#59004;" d="M199.168 433.152h49.152v-118.784c8.192 12.288 16.384 20.48 28.672 28.672 12.288 4.096 24.576 8.192 40.96 8.192 28.672 0 45.056-8.192 61.44-24.576 8.192-16.384 16.384-36.864 16.384-65.536v-135.168h-49.152V252.928c0 20.48-4.096 32.768-12.288 45.056-8.192 8.192-20.48 12.288-36.864 12.288s-28.672-4.096-36.864-16.384-12.288-28.672-12.288-45.056v-122.88h-49.152v307.2zM628.736 318.464c20.48-20.48 28.672-49.152 28.672-81.92s-8.192-61.44-28.672-81.92-49.152-32.768-81.92-32.768-61.44 12.288-81.92 32.768-28.672 49.152-28.672 81.92 8.192 61.44 28.672 81.92 45.056 32.768 81.92 32.768 61.44-12.288 81.92-32.768z m-126.464-32.768c-8.192-12.288-12.288-32.768-12.288-53.248s4.096-36.864 12.288-53.248c12.288-16.384 28.672-24.576 45.056-24.576 20.48 0 36.864 8.192 45.056 24.576 8.192 16.384 16.384 32.768 16.384 53.248s-4.096 40.96-16.384 53.248c-12.288 16.384-24.576 24.576-45.056 24.576-20.992 0-33.792-8.192-45.056-24.576zM772.096 416.768v-69.632h49.152v-40.96h-49.152v-122.88c0-4.096 0-8.192 4.096-12.288s8.192-4.096 12.288-4.096h28.672v-40.96h-36.864c-20.48 0-32.768 4.096-40.96 16.384-8.192 8.192-12.288 24.576-12.288 40.96v122.88h-40.96v40.96h40.96V396.288l45.056 20.48zM828.416 637.952h-36.864l-252.416 228.352c-12.288 12.288-28.672 12.288-45.056 0l-264.704-228.352h-36.864c-81.408 0-150.528-69.12-150.528-154.624v-436.224c0-85.504 65.024-154.624 150.528-154.624h639.488c81.408 0 150.528 69.12 150.528 154.624v436.224c-4.096 85.504-69.632 154.624-154.112 154.624z m-307.2 202.752l233.472-211.456h-476.672l243.2 211.456z m406.016-809.472c0-52.224-37.888-96.256-88.576-96.256H179.712c-46.592 0-88.576 43.52-88.576 96.256v462.336c0 52.224 37.888 96.256 88.576 96.256h663.04c46.592 0 88.576-43.52 88.576-96.256v-462.336h-4.096z"  horiz-adv-x="1024" />

    
    <glyph glyph-name="huatong" unicode="&#59056;" d="M443.092 326.368c18.84-21.49 44.063-33.336 71.014-33.336 54.61 0 99.222 49.374 101.556 112.389l0.006 110.086-0.018 0.506c-4.525 64.993-47.221 112.17-101.544 112.17-54.321 0-97.018-47.177-101.536-112.17l-0.013-0.257V405.69l0.007-0.361c1.51-30.166 12.35-58.21 30.528-78.96z m71.014 272.342c38.71 0 68.969-34.34 73.662-83.546V405.99c-3.988-48.388-34.927-83.477-73.662-83.477-38.796 0-69.736 35.09-73.654 83.47V515.159c4.798 49.211 35.045 83.552 73.654 83.552zM655.681 362.506l-0.387-6.902c-4.406-77.81-50.584-115.639-141.188-115.639-87.783 0-139.19 43.233-144.769 121.718l-0.48 6.796h-27.914l0.524-7.794c6.04-91.11 62.304-144.065 158.692-149.694v-42.965h-60.712v-29.473h149.325v29.473h-60.718v42.959c97.236 5.491 150.823 55.12 155.122 143.858l0.374 7.663h-27.869zM512.316 768.01c-212.434 0-384.642-172.215-384.642-384.648 0-212.422 172.208-384.636 384.642-384.636 212.433 0 384.642 172.214 384.642 384.636 0 212.433-172.209 384.648-384.642 384.648z m0.586-757.815c-201.531 0-373.19 171.641-373.19 373.167 0 201.537 171.659 373.178 373.19 373.178C714.44 756.54 886.1 584.9 886.1 383.368c0-201.532-171.653-373.173-373.197-373.173z"  horiz-adv-x="1024" />

    
    <glyph glyph-name="huatong1" unicode="&#58892;" d="M512 864C249.6 864 32 646.4 32 384s217.6-480 480-480 480 217.6 480 480S774.4 864 512 864zM512-64c-249.6 0-448 198.4-448 448s198.4 448 448 448 448-198.4 448-448-198.4-448-448-448zM396.8 345.6c12.8-83.2 128-121.6 185.6-64 51.2 38.4 38.4 102.4 38.4 160 0 64 6.4 134.4-6.4 198.4-12.8 70.4-96 108.8-160 76.8-44.8-25.6-64-76.8-64-128 6.4-83.2 0-166.4 6.4-243.2zM697.6 480h-38.4c-6.4-70.4 12.8-153.6-38.4-211.2C569.6 192 448 192 390.4 268.8c-51.2 57.6-32 140.8-32 211.2H320c0-70.4-12.8-153.6 25.6-217.6 32-51.2 89.6-83.2 147.2-89.6v-96H377.6v-38.4h268.8v38.4H531.2v96c57.6 12.8 115.2 38.4 147.2 96 32 57.6 19.2 140.8 19.2 211.2z"  horiz-adv-x="1024" />

    
    <glyph glyph-name="gouwuche" unicode="&#58880;" d="M347.136 112.63999999999999q19.456 0 36.864-7.168t30.72-19.968 20.48-30.208 7.168-36.864-7.168-36.864-20.48-30.208-30.72-20.48-36.864-7.68q-20.48 0-37.376 7.68t-30.208 20.48-20.48 30.208-7.168 36.864 7.168 36.864 20.48 30.208 30.208 19.968 37.376 7.168zM773.12 110.59199999999998q19.456 0 37.376-7.168t30.72-19.968 20.48-30.208 7.68-36.864-7.68-36.864-20.48-30.208-30.72-20.48-37.376-7.68-36.864 7.68-30.208 20.48-20.48 30.208-7.68 36.864 7.68 36.864 20.48 30.208 30.208 19.968 36.864 7.168zM945.152 692.2239999999999q28.672 0 44.544-7.68t22.528-18.944 6.144-24.064-3.584-22.016-12.8-37.888-22.016-62.976-24.064-68.096-17.92-53.248q-13.312-40.96-33.792-56.832t-50.176-15.872l-34.816 0-66.56 0-87.04 0-95.232 0-253.952 0 15.36-92.16 516.096 0q49.152 0 49.152-41.984 0-20.48-9.728-35.328t-38.4-14.848l-49.152 0-95.232 0-117.76 0-119.808 0-98.304 0-56.32 0q-20.48 0-34.304 9.216t-23.04 24.064-14.848 32.256-8.704 32.768q-1.024 6.144-5.632 29.696t-11.264 58.88-14.848 78.848-16.384 87.552q-19.456 103.424-44.032 230.4l-76.8 0q-15.36 0-25.6 7.68t-16.896 18.432-9.216 23.04-2.56 22.528q0 20.48 13.824 33.792t37.376 13.312l22.528 0 20.48 0 25.6 0 34.816 0q20.48 0 32.768-6.144t19.456-15.36 10.24-19.456 5.12-17.408q2.048-8.192 4.096-23.04t4.096-30.208q3.072-18.432 6.144-38.912l700.416 0z"  horiz-adv-x="1024" />

    
    <glyph glyph-name="shouji" unicode="&#58889;" d="M706.950141-23.360301H314.521167c-23.239887 0-42.024459 18.784572-42.02446 42.024459V747.409219c0 23.239887 18.904986 42.024459 42.02446 42.024459H706.829727c23.239887 0 42.024459-18.784572 42.024459-42.024459v-728.745061c0.120414-23.239887-18.784572-42.024459-41.904045-42.024459z m-196.274694 42.024459c15.533396 0 28.056444 12.523048 28.056444 28.056444S526.208843 74.777046 510.675447 74.777046s-28.056444-12.523048-28.056444-28.056444 12.643462-28.056444 28.056444-28.056444z m196.274694 686.720602H314.521167v-588.583255H706.829727V705.38476z m0 0"  horiz-adv-x="1024" />

    
    <glyph glyph-name="hengxian" unicode="&#58936;" d="M0 789.5h1024M0 810.8h1024v-42.7H0zM0-21.5h1024M0-0.2h1024v-42.7H0zM0 384h1024M0 405.3h1024v-42.7H0z"  horiz-adv-x="1024" />

    
    <glyph glyph-name="shoucangjia" unicode="&#58881;" d="M781.257 279.96799999999996q17.339-80.574 30.598-145.848 6.12-27.538 11.219-55.076t9.69-49.976 7.648-38.247 4.08-19.889q3.06-20.398-9.18-27.028t-27.537-6.63q-5.1 0-14.789 3.57t-14.789 5.61L511.998 101.48199999999997q-72.414-42.837-131.57-76.494-25.498-14.279-50.486-28.558t-45.386-26.518-35.187-20.398-19.889-10.2q-10.199-5.099-20.908-3.569t-19.379 7.65-12.749 14.788-2.04 17.849q1.02 4.08 5.1 19.888t9.18 37.737 11.728 48.447 13.77 54.055q15.298 63.235 34.677 142.79-60.176 52.015-108.112 92.812-20.398 17.339-40.287 34.167t-35.697 30.598-26.008 22.438-11.219 9.69q-12.24 11.219-20.908 24.987t-6.63 28.048 11.22 22.438 20.398 10.2L346.771 582.884l117.29 273.34q6.12 16.318 17.34 28.047T511.998 896q10.2 0 17.849-4.59t12.749-10.709 8.67-12.239 5.609-10.199l114.23-273.339 315.156-29.577q20.398-5.1 28.558-12.24t8.16-22.438q0-14.279-8.67-24.988t-21.928-26.008z"  horiz-adv-x="1024" />

    
    <glyph glyph-name="xiala" unicode="&#58919;" d="M999.39149206 540.35233862l-435.95310052-425.76728042c-13.24156614-14.76943916-31.57604233-23.42738624-51.43839154-23.42738625-19.86234921 0-38.7061164 8.65794709-51.43839154 23.42738625L24.60850794 540.35233862C3.72757672 562.7611428600001-2.89320635 595.8650582 7.80190476 624.38535449c11.20440211 29.0295873 37.68753439 48.89193651 68.24499471 51.94768254h870.88761905c31.06675132-2.54645503 57.5498836-22.91809524 68.75428572-51.94768254 11.20440211-28.5202963 4.58361905-61.62421164-16.29731218-84.03301587z"  horiz-adv-x="1024" />

    
    <glyph glyph-name="shangla" unicode="&#58906;" d="M455.7 639.2L87.5 270.9c-22.8-22.8-29.4-56.6-17.2-86.3 12.3-29.6 41.2-48.9 73.2-48.9h736.6c32 0 60.9 19.3 73.2 48.9 4 9.8 6 20.1 6 30.3 0 20.6-8.1 40.9-23.2 56L567.8 639.2a79.09 79.09 0 0 1-56 23.2c-21.1 0-41.3-8.4-56.1-23.2z"  horiz-adv-x="1024" />

    
    <glyph glyph-name="hot1" unicode="&#58887;" d="M512 896h1316.571429c285.257143 0 512-226.742857 512-512s-226.742857-512-512-512H512c-285.257143 0-512 226.742857-512 512s226.742857 512 512 512zM775.314286 654.628571v-219.428571H563.2v219.428571H460.8v-541.257142h102.4v219.428571h212.114286v-219.428571H877.714286V654.628571zM1879.771429 654.628571h-438.857143v-102.4H1609.142857v-438.857142h102.4v438.857142h168.228572zM1177.6 654.628571c-124.342857 0-219.428571-95.085714-219.428571-219.428571v-102.4c0-124.342857 95.085714-219.428571 219.428571-219.428571s219.428571 95.085714 219.428571 219.428571V435.2c0 124.342857-95.085714 219.428571-219.428571 219.428571z m0-460.8c-58.514286 0-109.714286 51.2-109.714286 109.714286v146.285714c0 58.514286 51.2 109.714286 109.714286 109.714286s109.714286-51.2 109.714286-109.714286v-146.285714c0-58.514286-43.885714-109.714286-109.714286-109.714286z"  horiz-adv-x="2340" />

    
    <glyph glyph-name="manjian" unicode="&#58890;" d="M1736.154316 13.20967H0V325.717447l10.299221 3.236898a131.535759 131.535759 0 0 1 0 251.30098L0 583.492223V896h1736.154316v-286.024067l-9.41643-3.825425a147.131722 147.131722 0 0 1 0-273.665002l9.41643-3.825425zM29.426344 42.636014h1677.301628v264.837099a176.558066 176.558066 0 0 0 0 320.747154v235.410754H29.426344V601.736557a160.962104 160.962104 0 0 0 0-300.148713zM261.894465 592.320126a783.329286 783.329286 0 0 0 112.408635-98.578253l-44.728043-44.728043a647.379575 647.379575 0 0 1-112.408636 100.638097z m122.707855-197.745034a2247.289917 2247.289917 0 0 0-96.518409-237.764862l-58.852689 25.60092a2128.113222 2128.113222 0 0 1 100.049571 233.056647zM279.550271 752.693703a749.783254 749.783254 0 0 0 102.403678-98.578253l-44.728043-45.316571a628.840978 628.840978 0 0 1-102.403678 101.226625z m107.111894-163.610474h435.509896v-58.852689h-127.416071v-57.087108h110.348791v-252.183771c0-42.962463-20.009914-64.443694-58.852689-64.443694H691.519092l-15.007436 54.438737 50.613313-2.648371c14.713172 0 22.069758 8.53364 22.069758 25.012393v186.857286h-54.438737l-2.059844-29.426344c17.361543-22.364022 34.134559-46.199361 50.613312-72.094544l-27.3665-41.491145c-9.41643 21.481231-19.715651 44.139517-29.426345 67.680592a376.657208 376.657208 0 0 0-69.151909-147.131722l-42.079672 36.194403a308.976616 308.976616 0 0 1 67.092065 186.563024h-73.860124l-1.765581-20.304178c14.713172-17.655807 31.486188-39.137038 49.730522-65.032221l-29.426344-41.491146c-14.713172 29.426344-24.718129 50.907576-29.426345 61.206797a366.063724 366.063724 0 0 0-55.321527-120.942276l-38.254248 33.546033v-114.174216h-55.615791v320.747153h110.348792V531.11333h-132.712813z m15.595962 117.705377h92.104458V754.459284h61.206796v-46.493624h96.51841V754.459284h60.324005v-46.493624h99.461044v-58.852689h-99.461044v-38.842775h-60.324005V648.818708h-96.51841v-39.431302H494.362585V648.818708h-92.692985z m62.38385-287.789648v-147.131721a290.732282 290.732282 0 0 1 53.261683 147.131721z m105.93484 53.85021h72.977334V531.11333h-73.565861zM1029.922052 441.951507q-42.079672-147.131722-91.515931-274.842056l-58.852689 25.600919a2728.999174 2728.999174 0 0 1 95.341356 270.722368zM933.992169 734.155106a1147.627429 1147.627429 0 0 0 88.279033-149.191566l-50.024785-34.134559a1355.37742 1355.37742 0 0 1-88.279033 151.25141z m529.674198-188.03434a882.79033 882.79033 0 0 0-82.0995-233.645174 306.328245 306.328245 0 0 1 11.18201-38.254248c13.241855-35.311613 25.306656-54.144474 36.194404-55.910054 5.296742 0 8.53364 37.077194 10.004957 109.760264l50.319049-22.952548q0-147.131722-56.204318-147.131722c-24.718129 0-46.787887 17.95007-66.503538 54.438737a313.096304 313.096304 0 0 0-19.715651 45.31657 394.018751 394.018751 0 0 0-106.523366-99.755307l-37.077194 46.493624a358.412874 358.412874 0 0 1 122.413592 123.296383c-6.768059 29.426344-12.359065 56.204318-17.361543 82.982291a1609.326772 1609.326772 0 0 0-22.069758 202.158985h-171.555588v-179.794963a521.434822 521.434822 0 0 0-75.037178-281.904379l-45.905097 40.608355q62.089587 88.279033 65.032221 241.296024V670.594202h224.817271V756.519128h55.321527c0-29.426344 0-57.087108 2.059844-85.924926h53.261684a470.821509 470.821509 0 0 1-33.546033 58.852689l50.024786 7.945113c10.593484-19.421387 21.186968-42.079672 32.074715-67.680592h29.426344v-57.381371h-128.298861c2.648371-53.85021 6.768059-105.346313 12.359064-154.194045l7.356587-55.910054a900.7404 900.7404 0 0 1 47.376414 164.787528z m-322.21847 23.246812h125.061963v-53.261683h-125.061963z m1.471317-92.692985h129.475915v-204.21883h-129.475915z m84.747872-158.313732v112.408635h-40.019829v-112.408635z"  horiz-adv-x="2013" />

    
    <glyph glyph-name="jifen" unicode="&#58982;" d="M849.7152 591.2576v-201.1136a49.9712 49.9712 0 0 0 0-5.5296V168.96c0-107.52-153.3952-184.32-337.92-184.32s-337.92 76.8-337.92 184.32V593.92a39.5264 39.5264 0 0 0 0 4.9152v6.5536C178.9952 710.2464 330.3424 783.7696 512 783.7696s330.3424-73.728 337.7152-177.7664v-7.168c0.2048-2.4576 0.2048-5.12 0-7.5776z m-61.44-100.5568c-61.44-47.3088-163.84-76.1856-276.2752-76.1856s-214.8352 29.0816-276.48 76.1856v-102.4c2.6624-61.44 122.88-120.832 276.48-120.832s272.384 58.7776 276.48 119.808z m0 103.8336v8.192c-5.5296 61.44-125.952 119.6032-276.2752 119.6032s-273.6128-58.5728-276.48-118.3744v-7.7824c3.6864-61.44 123.904-120.2176 276.48-120.2176s270.9504 58.1632 276.2752 118.5792zM788.48 281.6c-61.44-47.3088-163.84-76.1856-276.48-76.1856S297.1648 234.7008 235.52 281.6v-112.64c0-61.44 121.6512-122.88 276.48-122.88s276.48 61.44 276.48 122.88z"  horiz-adv-x="1024" />

    
    <glyph glyph-name="gouwudai" unicode="&#58941;" d="M129.365333-64h762.112l-39.424 640H168.746667l-39.381334-640zM148.693333 640h723.456a42.666667 42.666667 0 0 0 42.581334-40.064l42.026666-682.666667A42.666667 42.666667 0 0 0 914.176-128H106.666667a42.666667 42.666667 0 0 0-42.581334 45.269333l42.026667 682.666667A42.666667 42.666667 0 0 0 148.693333 640z m216.704-224c-35.84 0-65.493333 28.330667-65.493333 64s29.610667 64 65.493333 64c35.84 0 65.450667-28.330667 65.450667-64s-29.610667-64-65.450667-64z m258.645334 119.210667V725.333333c0 58.282667-50.474667 106.666667-114.048 106.666667-63.616 0-114.090667-48.384-114.090667-106.666667v-256h-64V725.333333c0 94.293333 79.701333 170.666667 178.090667 170.666667 98.346667 0 178.048-76.373333 178.048-170.666667v-188.885333c20.522667-10.709333 34.645333-31.829333 34.645333-56.448 0-35.669333-29.653333-64-65.493333-64s-65.493333 28.330667-65.493334 64c0 23.68 13.098667 44.16 32.341334 55.210667z"  horiz-adv-x="1024" />

    
    <glyph glyph-name="album" unicode="&#58882;" d="M150.588235 353.88235299999997a30.117647 30.117647 0 1 0 60.235294 0 271.058824 271.058824 0 0 1 271.058824-271.058824 30.117647 30.117647 0 1 0 0-60.235294C298.917647 22.588235000000054 150.588235 170.917647 150.588235 353.88235299999997z m722.82353 60.235294a30.117647 30.117647 0 1 0-60.235294 0 271.058824 271.058824 0 0 1-271.058824 271.058824 30.117647 30.117647 0 1 0 0 60.235294c182.964706 0 331.294118-148.329412 331.294118-331.294118zM512-128C229.225412-128 0 101.225412 0 384S229.225412 896 512 896s512-229.225412 512-512-229.225412-512-512-512z m0 60.235294c249.494588 0 451.764706 202.270118 451.764706 451.764706 0 249.494588-202.270118 451.764706-451.764706 451.764706C262.505412 835.764706 60.235294 633.494588 60.235294 384c0-249.494588 202.270118-451.764706 451.764706-451.764706z m0 331.294118a120.470588 120.470588 0 1 0 0 240.941176 120.470588 120.470588 0 0 0 0-240.941176z m0 60.235294a60.235294 60.235294 0 1 1 0 120.470588 60.235294 60.235294 0 0 1 0-120.470588z"  horiz-adv-x="1024" />

    
    <glyph glyph-name="wangyiyunyinle" unicode="&#60079;" d="M627.086668 890.885037c28.132297 7.672445 58.822075 7.672445 86.954372 0 33.24726-7.672445 63.937038-23.017334 89.511853-43.477186 10.229926-7.672445 17.902371-15.344889 23.017334-28.132297 7.672445-17.902371 5.114963-38.362223-5.114963-53.707112-7.672445-12.787408-23.017334-23.017334-40.919704-25.574815-12.787408-2.557482-25.574815 0-38.362223 7.672445-5.114963 2.557482-10.229926 10.229926-17.902371 12.787407-17.902371 10.229926-35.804741 20.459852-56.264593 17.902371-15.344889 0-28.132297-7.672445-35.804742-17.902371-10.229926-10.229926-12.787408-23.017334-10.229926-35.804741 7.672445-25.574815 12.787408-53.707112 20.459853-79.281927 51.14963-2.557482 99.741779-15.344889 143.218965-40.919704 40.919704-25.574815 79.281927-58.822075 109.971705-97.184298 25.574815-33.24726 46.034667-71.609483 56.264593-112.529187 12.787408-43.477186 17.902371-89.511853 12.787408-132.989039-2.557482-38.362223-10.229926-74.166964-23.017334-109.971705-33.24726-84.39689-92.069335-161.121336-171.351261-209.713485-56.264593-35.804741-122.759113-58.822075-189.253633-66.49452-46.034667-5.114963-92.069335-5.114963-138.104002 2.557482-94.626816 15.344889-181.581188 61.379556-250.633189 130.431558-66.49452 66.49452-112.529187 153.448891-132.989039 245.518225-7.672445 69.052001-7.672445 138.104002 7.672445 207.156004 17.902371 81.839409 61.379556 161.121336 117.644149 222.500892 48.592149 51.14963 107.414224 89.511853 171.351262 117.64415 7.672445 2.557482 12.787408 5.114963 20.459852 7.672444 15.344889 2.557482 30.689778 0 43.477186-10.229926 17.902371-12.787408 25.574815-33.24726 23.017334-53.707112-2.557482-20.459852-17.902371-38.362223-35.804741-46.034667-63.937038-25.574815-122.759113-69.052001-163.678818-122.759113C205.102218 522.607698 179.527402 463.785623 171.854958 402.406067c-7.672445-61.379556 0-122.759113 20.459852-181.581188 30.689778-84.39689 94.626816-156.006373 173.908743-196.926077 48.592149-25.574815 102.299261-38.362223 156.006373-38.362223 43.477186 0 89.511853 7.672445 130.431558 23.017334 35.804741 12.787408 71.609483 33.24726 99.741779 58.822074 28.132297 23.017334 51.14963 53.707112 66.494519 84.396891 7.672445 15.344889 17.902371 33.24726 20.459853 51.14963 15.344889 51.14963 17.902371 107.414224 2.557481 158.563854-12.787408 43.477186-38.362223 81.839409-71.609482 109.971706-15.344889 12.787408-30.689778 25.574815-48.592149 35.804741-15.344889 7.672445-30.689778 15.344889-48.592149 17.902371 12.787408-46.034667 23.017334-92.069335 35.804741-135.546521 2.557482-10.229926 5.114963-23.017334 5.114963-33.24726 2.557482-46.034667-15.344889-94.626816-46.034667-130.431557-28.132297-33.24726-69.052001-58.822075-112.529187-66.49452-46.034667-10.229926-97.184298 0-138.104002 25.574815-38.362223 25.574815-66.49452 63.937038-81.839409 104.856743-7.672445 23.017334-12.787408 48.592149-12.787407 74.166964-2.557482 56.264593 12.787408 109.971705 43.477185 156.006373 35.804741 53.707112 94.626816 92.069335 158.563855 109.971705-5.114963 17.902371-10.229926 35.804741-12.787408 53.707112-12.787408 38.362223-10.229926 81.839409 7.672445 115.086668 10.229926 20.459852 23.017334 38.362223 40.919704 51.149631C583.609483 870.425185 604.069335 883.212592 627.086668 890.885037m-148.333928-414.312006c-17.902371-17.902371-28.132297-40.919704-33.24726-63.937038-5.114963-20.459852-5.114963-43.477186 0-66.49452 5.114963-23.017334 17.902371-46.034667 38.362223-61.379556 15.344889-10.229926 35.804741-15.344889 56.264594-10.229926 35.804741 5.114963 63.937038 38.362223 63.937038 74.166964-2.557482 7.672445-2.557482 17.902371-5.114963 25.574815-12.787408 48.592149-25.574815 99.741779-38.362223 148.333928-30.689778-7.672445-58.822075-23.017334-81.839409-46.034667z"  horiz-adv-x="1024" />

    
    <glyph glyph-name="gouwuche1" unicode="&#58935;" d="M339.446 1.759c0-28.829 23.374-52.202 52.203-52.202s52.203 23.373 52.203 52.202c0 28.829-23.374 52.203-52.203 52.203s-52.203-23.374-52.203-52.203z m437.29 0c0-28.834 23.374-52.202 52.208-52.202 28.829 0 52.203 23.368 52.203 52.202 0 28.829-23.374 52.203-52.203 52.203-28.834 0-52.208-23.374-52.208-52.203z m93.788 140.329h-0.121l-500.614-1.842-15.936 1.716c-5.127 2.185-27.713 14.855-36.04 70.969L253.57 695.824c0 0.774-0.021 1.551-0.071 2.336-3.709 51.718-25.387 81.041-42.917 96.533-19.69 17.399-38.916 21.991-42.57 22.736a30.943 30.943 0 0 1-5.99 0.623l-63.829 0.391h-0.197c-17.016 0-30.873-13.749-30.974-30.794-0.106-17.109 13.68-31.066 30.792-31.17l59.383-0.363c6.716-2.581 24.454-12.219 31.715-43.473 0.045-0.772 0.106-1.547 0.217-2.326l67.286-505.787c0.021-0.142 0.041-0.288 0.061-0.435 15.785-106.983 78.347-121.743 85.432-123.076 0.792-0.151 1.595-0.267 2.402-0.353l20.553-2.216a31.83 31.83 0 0 1 3.32-0.177h0.111l502.34 1.848c17.106 0.061 30.928 13.987 30.867 31.094-0.063 17.076-13.92 30.873-30.977 30.873z m90.146 473.875c8.134 35.424 4.117 64.906-12 87.72-23.177 32.808-61.245 36.37-65.51 36.668a29.526 29.526 0 0 1-2.261 0.076l-526.365-1.681c-17.111-0.055-30.943-13.97-30.882-31.082 0.05-17.112 13.958-30.966 31.079-30.885l524.634 1.675c2.483-0.424 13.156-2.687 18.691-10.524 3.573-5.056 5.087-12.673 4.572-22.215a30.447 30.447 0 0 1-0.672-3.278l-2.194-14.798a132.515 132.515 0 0 0-1.01-3.84 30.712 30.712 0 0 1-1.069-10.168L860.22 361.322a30.92 30.92 0 0 1-0.934-4.925c-5.001-47.272-25.922-53.187-29.197-53.822l-408.331-36.701c-17.041-1.529-29.611-16.587-28.082-33.633 1.448-16.097 14.962-28.208 30.822-28.208 0.928 0 1.867 0.041 2.811 0.121L836.054 240.9c4.95 0.435 23.197 3.038 41.938 18.101 10.915 8.766 23.691 23.263 32.699 46.632a30.853 30.853 0 0 1 6.015 14.25l43.964 296.08z"  horiz-adv-x="1024" />

    
    <glyph glyph-name="huatong2" unicode="&#58948;" d="M511.995795 895.99959a509.915796 509.915796 0 0 1-341.916863-131.039948 863.099654 863.099654 0 0 1-17.439993-15.999993A510.075796 510.075796 0 0 1 1.12 416.003782c-1.12-10.399996-1.12-21.119992-1.12-31.999987s0-21.599991 1.12-31.999987A511.995795 511.995795 0 1 1 511.995795 895.99959z m178.877928-495.995801a184.158926 184.158926 0 0 0-157.917936-175.99893v-102.239959h58.079976c13.919994 0 27.838989-2.239999 27.838989-13.919994s-15.999994-13.918994-27.839989-13.918995H432.955827c-13.919994 0-27.839989 2.399999-27.839989 13.919995s15.999994 13.919994 27.839989 13.919994h58.079976V224.004859a178.398929 178.398929 0 0 0-157.918936 175.99893v30.719987a23.359991 23.359991 0 0 0 46.559981 0v-30.719987a134.718946 134.718946 0 0 1 269.437892 0v30.719987a23.199991 23.199991 0 0 0 22.879991 23.199991 21.919991 21.919991 0 0 0 23.199991-23.199991z m-285.756885 6.879997V563.200723a107.039957 107.039957 0 1 0 213.757914 0v-155.678937a107.039957 107.039957 0 1 0-213.757914 0z"  horiz-adv-x="1024" />

    
    <glyph glyph-name="QQ" unicode="&#58888;" d="M829.952 205.00480000000005c-4.7104 57.6512-34.9184 121.9584-47.5136 154.112l-32.256 83.0464c-1.024 34.6112 9.216 113.9712-44.4416 213.504-53.76 99.5328-161.4848 108.544-181.4528 109.568-19.8656 0.8192-144.4864 1.8432-205.7216-106.3936-61.1328-108.3392-44.7488-216.7808-44.7488-216.7808l-34.0992-83.7632s-15.9744-38.1952-29.696-84.5824c-13.9264-46.4896-27.4432-119.6032-13.9264-134.3488 13.9264-14.9504 63.6928 67.9936 68.3008 75.4688 0 0 3.584-39.5264 12.9024-60.2112 7.68-16.4864 25.8048-57.856 62.464-90.2144-17.6128-5.7344-60.0064-21.0944-66.1504-36.7616-7.7824-20.1728 6.0416-22.4256 30.0032-23.7568 23.7568-1.3312 138.24-4.4032 193.024 3.1744 0.512 0.2048 1.2288 0.2048 1.7408 0.3072 5.4272-0.2048 10.5472-0.3072 15.0528-0.3072 3.072 0 6.5536 0 10.5472 0.2048 0.512 0 0.7168-0.2048 1.2288-0.2048 54.784-7.7824 169.2672-4.7104 193.024-3.1744 23.7568 1.3312 37.7856 3.6864 30.0032 23.7568-6.2464 16.0768-49.8688 31.5392-66.9696 36.9664 5.5296 4.8128 10.752 9.9328 15.5648 15.4624 61.7472 67.9936 56.6272 110.6944 59.1872 135.3728 0 0 52.0192-75.0592 63.1808-77.5168 11.776-2.4576 15.2576 9.4208 10.752 67.072z m0 0M371.4048 42.70079999999996c-11.1616 6.2464-21.7088 13.6192-31.232 22.2208-17.6128-5.8368-60.0064-21.0944-66.1504-36.7616-7.7824-20.1728 6.0416-22.4256 30.0032-23.7568 23.7568-1.3312 138.24-4.4032 193.024 3.1744 0.512 0.2048 1.2288 0.2048 1.7408 0.3072-44.6464 0.8192-88.4736 12.8-127.3856 34.816z m310.0672 22.2208c-54.272-48.2304-121.1392-56.32-157.184-57.4464 0.512 0 0.7168-0.2048 1.2288-0.2048 54.784-7.7824 169.2672-4.7104 193.024-3.1744 23.7568 1.3312 37.7856 3.6864 30.0032 23.7568-6.3488 16.2816-49.9712 31.6416-67.072 37.0688z m0 0M782.336 359.3216l-32.256 83.1488s-221.2864-70.0416-476.16 0l-34.0992-83.7632s46.7968-16.5888 121.9584-28.4672v-112.64s59.6992-8.192 104.6528-2.56V319.28319999999997c91.2384-5.0176 201.9328 2.2528 315.904 40.0384z m0 0M705.7408 655.7696c-53.5552 99.328-161.28 108.3392-181.248 109.3632-19.8656 1.024-144.4864 2.048-205.7216-106.2912-61.2352-108.4416-44.7488-216.7808-44.7488-216.7808 255.8976-71.3728 476.16 0 476.16 0-1.1264 34.816 9.3184 114.3808-44.4416 213.7088zM448.9216 548.1472c-23.2448 0-41.8816 26.9312-41.8816 60.2112 0 33.1776 18.8416 60.2112 41.8816 60.2112 23.2448 0 41.8816-26.9312 41.8816-60.2112s-18.6368-60.2112-41.8816-60.2112z m125.0304 0c-23.2448 0-41.8816 26.9312-41.8816 60.2112 0 33.1776 18.8416 60.2112 41.8816 60.2112 23.2448 0 41.8816-26.9312 41.8816-60.2112s-18.8416-60.2112-41.8816-60.2112z m0 0M443.1872 603.4431999999999c0-13.2096 8.192-24.064 18.1248-24.064 10.0352 0 18.1248 10.6496 18.1248 24.064s-8.192 24.064-18.1248 24.064c-9.9328-0.1024-18.1248-10.8544-18.1248-24.064zM573.952 618.496c12.0832 0 28.672-6.2464 25.088-16.0768-2.8672-7.7824-17.1008 2.56-22.2208 3.3792-6.4512 0.8192-15.9744 1.536-23.7568-7.9872-5.2224-6.2464-13.4144-5.5296-10.5472 3.072 3.2768 9.6256 15.4624 17.6128 31.4368 17.6128z m0 0M366.3872 497.5616c0-10.1376 75.5712-48.0256 144.7936-47.5136 69.2224 0.512 146.3296 37.9904 146.3296 48.9472 0 10.8544-55.5008 30.208-147.7632 30.208-92.16 0.1024-143.36-16.6912-143.36-31.6416z m0 0M829.952 205.00480000000005c-4.7104 57.6512-34.9184 121.9584-47.5136 154.112-29.7984-9.8304-59.6992-17.6128-88.6784-23.7568 2.56-12.9024 5.8368-41.0624 4.608-94.8224-2.048-80.1792-28.16-145.5104-92.4672-183.296-64.3072-37.7856-177.2544-29.4912-226.5088 32.256-46.4896 57.9584-61.5424 101.2736-50.3808 246.272-55.9104 11.0592-89.1904 22.7328-89.1904 22.7328s-15.9744-38.1952-29.696-84.5824c-13.9264-46.4896-27.4432-119.6032-13.9264-134.3488 13.9264-14.9504 63.7952 67.9936 68.3008 75.4688 0 0 3.584-39.5264 12.9024-60.2112 9.3184-20.6848 35.4304-80.1792 93.7984-112.4352C429.4656 10.240000000000009 479.0272 7.168000000000006 513.7408 7.168000000000006c34.7136 0 121.6512 5.12 183.296 73.1136s56.6272 110.6944 59.1872 135.3728c0 0 52.0192-75.0592 63.1808-77.5168 11.5712-2.6624 15.0528 9.216 10.5472 66.8672z m0 0"  horiz-adv-x="1024" />

    
    <glyph glyph-name="up2" unicode="&#58883;" d="M781.66882811 273.51492297000004L529.87357819 527.59775669c-8.94601835 9.02239844-23.50979251 9.08413902-32.53155447 0.14003018l-0.005092-0.00445553c-0.09229261-0.09229261-0.11711614-0.21004525-0.20368025-0.29533635-0.38826547-0.36535145-0.89619308-0.45764405-1.28573156-0.85291103L241.78950974 274.80765605c-9.03067295-8.95492936-9.09241353-23.53397955-0.13939367-32.56401601 8.95492936-9.03130945 23.53397955-9.09305003 32.56465249-0.14003016l239.04804896 236.90367787 235.75288448-237.91125859c8.80917068-9.16051912 23.37421786-9.44439847 32.53346398-0.63650077 9.16051912 8.80917068 9.44439847 23.37485435 0.63586425 32.53410045a16.21485718 16.21485718 0 0 1-0.51556561 0.52129413z"  horiz-adv-x="1024" />

    
    <glyph glyph-name="weibo" unicode="&#58921;" d="M512-102.4c268.61568 0 486.4 217.78432 486.4 486.4S780.61568 870.4 512 870.4 25.6 652.61568 25.6 384 243.38432-102.4 512-102.4z m0-25.6C229.25312-128 0 101.25312 0 384S229.25312 896 512 896 1024 666.74688 1024 384 794.74688-128 512-128zM431.104 94.8224c-128.53248-6.02112-232.52992 58.5728-232.52992 144.75264s104.0384 155.40224 232.52992 161.05472c128.53248 5.98016 232.89856-47.26784 232.89856-133.12 0-86.17984-104.0384-166.7072-232.89856-172.72832m273.98144 279.552c-30.47424 6.02112-15.5648 22.3232-15.5648 22.3232s29.81888 49.5616-5.98016 85.1968c-44.40064 44.56448-152.04352-5.65248-152.04352-5.65248-41.08288-12.98432-30.14656 5.98016-24.53504 37.60128 0 37.2736-12.9024 100.84352-122.55232 63.20128-109.64992-37.2736-203.73504-169.04192-203.73504-169.04192-60.29312-80.52736-79.50336-196.03456 0-270.90944 76.1856-71.8848 196.11648-90.5216 296.79616-84.86912 95.06816 5.3248 202.42432 37.2736 268.6976 109.85472 13.39392 14.336 24.45312 30.72 32.768 48.57856 53.00224 112.80384-43.4176 157.73696-73.85088 163.71712M449.3312 238.592c-8.27392-6.02112-18.2272-5.3248-22.528 1.96608a18.80064 18.80064 0 0 0 5.3248 24.61696c9.58464 7.00416 19.53792 4.99712 23.83872-1.96608 4.3008-7.3728 1.31072-18.30912-6.63552-24.65792m-76.51328-65.20832c-24.1664-2.6624-43.74528 10.97728-43.74528 31.29344 0 20.2752 17.2032 41.24672 41.41056 43.90912 27.8528 2.6624 45.71136-13.312 45.71136-33.5872 0.32768-20.31616-19.21024-38.95296-43.4176-41.61536m32.84992 170.72128c-63.93856-7.65952-110.34624-50.25792-114.64704-115.13856-1.31072-19.6608 1.6384-41.28768 12.61568-58.24512 26.8288-41.94304 84.45952-46.2848 128.49152-37.60128 46.40768 9.29792 93.10208 42.27072 102.72768 90.84928a102.52288 102.52288 0 0 1-6.63552 58.90048c-20.19328 49.93024-72.54016 66.88768-122.55232 61.2352m486.6048 98.5088a27.72992 27.72992 0 0 1 1.024 7.33184c1.6384 11.30496 2.62144 22.9376 2.62144 34.6112 0 128.12288-103.66976 232.28416-231.2192 232.28416a31.9488 31.9488 0 1 1 0-63.8976 167.936 167.936 0 0 0 167.60832-168.05888 188.416 188.416 0 0 0-2.62144-30.63808h0.32768c0-1.31072-0.32768-2.33472-0.32768-3.64544a31.9488 31.9488 0 0 1 32.11264-31.9488 31.1296 31.1296 0 0 1 30.47424 23.9616c0-0.32768 0-0.32768 0 0M791.87968 472.51456c0.32768 4.01408 0.65536 7.9872 0.65536 12.00128a128.53248 128.53248 0 0 1-128.2048 128.45056 26.91072 26.91072 0 0 1-26.8288-26.624c0-14.62272 11.91936-26.624 26.8288-26.624a74.9568 74.9568 0 0 0 74.21952-84.86912h0.65536c0-0.98304-0.65536-2.00704-0.65536-2.99008 0-14.66368 11.8784-26.624 26.8288-26.624a26.2144 26.2144 0 0 1 25.8048 23.30624h0.32768v1.96608c0 0.69632 0.36864 1.024 0.36864 1.67936 0.32768 0 0 0 0 0.32768"  horiz-adv-x="1024" />

    
    <glyph glyph-name="zanshang" unicode="&#59402;" d="M512-128C229.248-128 0 101.248 0 384S229.248 896 512 896s512-229.248 512-512-229.248-512-512-512z m0 85.333333c235.648 0 426.666667 191.018667 426.666667 426.666667S747.648 810.666667 512 810.666667 85.333333 619.648 85.333333 384s191.018667-426.666667 426.666667-426.666667zM355.498667 514.133333h313.002666v-117.674666H355.498667V514.133333z m257.450666-77.653333v37.034667H411.050667v-37.034667h201.898666zM482.133333 661.077333h59.733334v-67.498666h59.136c12.544 20.309333 23.296 41.216 32.853333 63.914666l54.954667-19.114666a266.709333 266.709333 0 0 0-25.685334-44.8h102.741334v-125.44h-56.149334V544.597333H314.282667v-77.056h-56.746667V593.578667h106.325333c-8.96 15.530667-19.114667 29.866667-29.866666 43.008l53.76 19.712c13.141333-17.322667 25.088-38.229333 35.84-62.72H482.133333V661.077333z m221.610667-290.304v-165.461333h-56.149333v115.285333H377.002667v-121.856H320.853333V370.773333h382.890667z m-152.917333-157.696c78.848-16.128 149.930667-35.84 214.442666-59.733333l-32.256-49.578667a1214.976 1214.976 0 0 1-210.858666 66.304l28.672 43.008z m-63.914667 89.002667l56.746667-4.778667c-8.362667-68.096-25.685333-112.896-53.162667-134.997333-29.866667-28.672-99.754667-46.592-210.261333-54.954667l-22.698667 51.370667c93.184 3.584 154.112 16.128 183.381333 37.632 26.282667 20.309333 41.216 55.552 45.994667 105.728z"  horiz-adv-x="1024" />

    
    <glyph glyph-name="arrow-right" unicode="&#58884;" d="M329.525 704.453l56.285 58.26 393.996-392.021-393.996-392.021-56.285 58.26 331.786 333.761z"  horiz-adv-x="1024" />

    
    <glyph glyph-name="arrow-left-copy" unicode="&#58885;" d="M694.475 63.547000000000025l-56.285-58.26-393.996 392.021 393.996 392.021 56.285-58.26-331.786-333.761z"  horiz-adv-x="1024" />

    
    <glyph glyph-name="yi1" unicode="&#58886;" d="M753.52632889-62.23416888999998a503.92746667 503.92746667 0 0 0-116.7872-45.37912889c-39.97013333-10.04316445-81.74592-15.44760889-124.62876444-15.44760889-140.44728889 0-267.57461333 56.87523555-359.58784 148.73713778-92.01322667 91.86190222-148.98176 218.77646222-148.98176 358.99164444 0 140.14691555 56.96739555 267.06261333 148.98289777 358.92337778 92.01208889 91.93016889 219.13941333 148.736 359.58784 148.736 140.38016 0 267.50748445-56.80696889 359.51957333-148.736 92.08376889-91.86076445 148.98403555-218.77532445 148.98403556-358.92110222 0-61.51736889-11.03416889-120.47246222-31.15576889-175.13244444-20.81905778-56.53048889-51.55953778-108.41884445-90.14044444-153.65688889-9.36732445-11.01255111-25.88216889-12.39950222-36.91633778-2.97756445-11.03303111 9.35025778-12.42112 25.91061333-2.98325333 36.92430222 34.34837333 40.25116445 61.82798222 86.80334222 80.63203555 137.79285334 17.97233778 48.83911111 27.82663111 101.76853333 27.82663111 157.04974222 0 125.66755555-51.00316445 239.42030222-133.51025778 321.72032-82.43882667 82.37056-196.38044445 133.28839111-322.25621333 133.28839111-125.87690667 0-239.88792889-50.91783111-322.32220444-133.29066667-82.50709333-82.30001778-133.51025778-196.05276445-133.51025778-321.72032 0-125.66869333 51.00316445-239.49084445 133.51025778-321.79086222 82.43427555-82.36828445 196.44529778-133.28611555 322.32220444-133.28611555 38.65031111 0 76.19356445 4.77866667 111.85948445 13.78531555 36.84807111 9.28426667 71.95875555 23.06844445 104.64369778 40.66531556 12.76586667 6.92679111 28.72661333 2.07758222 35.59765333-10.66666667 6.93703111-12.7488 2.08099555-28.67996445-10.68600889-35.60903111zM753.85628445 671.51075555zM337.52974222 441.26321778V695.73745778h409.30986667v-254.47424h-270.96177778c-14.33713778-20.55281778-29.87121778-39.42513778-46.59427556-56.62947556h374.90119112l-13.6192-202.86236444c-2.39729778-62.11697778-36.08803555-92.22371555-101.07335112-90.32021333-15.7696 0-33.69073778 1.19808-53.76113777 3.584-0.48241778 15.77187555-5.26449778 32.73955555-14.33713778 50.89507555 21.97504-3.33824 43.00913778-5.01873778 63.08067555-5.01873778 34.87744-0.46990222 53.04433778 17.20433778 54.47907556 53.04547556l10.752 145.51608889H688.05973333c-56.39395555-116.12615111-146.23288889-204.76700445-269.52817778-265.94417778-10.99889778 11.95121778-26.52273778 21.98641778-46.59427555 30.10673778 120.89799111 57.34627555 208.59676445 135.95192889 263.07584 235.83744h-88.88661333c-60.69475555-82.20103111-147.19658667-148.38328889-259.49184-198.56270222-13.38481778 16.24177778-27.48529778 27.47505778-42.29347556 33.69187555 102.26005333 43.00913778 183.02634667 97.95925333 242.28864 164.86968889h-106.80775111c-35.37123555-29.15441778-74.07957333-53.04547555-116.12615111-71.68341334-11.46993778 13.37457778-26.05283555 24.12544-43.72707556 32.25827556 86.01941333 38.22705778 151.25162667 85.30261333 195.69436445 141.21528889h-78.13347556z m51.61187556 210.74716444v-62.36387555H694.51093333v62.36387555H389.14161778z m0-167.02122667H694.51093333v63.08067556H389.14161778v-63.08067556z"  horiz-adv-x="1024" />

    


  </font>
</defs>
</svg>
